<?xml version="1.0" standalone="no"?>
<!DOCTYPE svg PUBLIC "-//W3C//DTD SVG 20010904//EN"
 "http://www.w3.org/TR/2001/REC-SVG-20010904/DTD/svg10.dtd">
<svg version="1.0" xmlns="http://www.w3.org/2000/svg"
 width="12" height="6.4" viewBox="0 0 10 6.4"
 preserveAspectRatio="xMidYMid meet">
<metadata>
Created by potrace 1.15, written by Peter Selinger 2001-2017
</metadata>
<g transform="translate(0.000000,560.000000) scale(0.8, -0.8)" fill="#f4433t" stroke="none">
<path d="M10546 6299 c-314 -43 -622 -157 -869 -323 -422 -282 -661 -597
-1030 -1355 -402 -827 -486 -977 -708 -1251 -86 -106 -279 -300 -380 -382
-100 -82 -287 -198 -318 -198 -6 0 -25 28 -42 63 l-31 62 1 195 c1 139 -3 218
-13 274 -9 43 -17 81 -20 83 -2 2 -26 -19 -52 -48 -50 -52 -169 -153 -234
-195 -36 -24 -36 -24 -115 -8 -232 46 -466 -43 -619 -234 l-55 -70 -88 -8
c-50 -4 -138 -2 -203 4 -63 5 -117 8 -119 6 -9 -9 23 -93 59 -155 22 -37 92
-121 158 -191 109 -115 155 -181 164 -233 3 -17 -5 -21 -52 -27 -113 -17 -508
6 -750 43 -435 67 -824 190 -1389 441 -668 296 -893 368 -1248 398 -445 38
-1018 -134 -1386 -417 -251 -193 -342 -307 -739 -918 -219 -337 -278 -435
-347 -574 -56 -111 -125 -280 -118 -288 3 -2 23 7 44 20 128 81 309 153 476
189 84 18 133 22 277 22 156 -1 185 -4 273 -27 340 -91 621 -320 776 -631 47
-96 97 -228 121 -325 l11 -43 26 23 c14 13 74 83 133 154 196 237 320 339 520
425 206 90 398 130 620 130 339 0 586 -92 803 -299 134 -128 231 -279 292
-454 15 -42 30 -77 34 -77 3 0 24 35 45 78 31 59 62 99 135 173 265 265 589
393 951 376 229 -11 370 -66 497 -194 86 -87 145 -196 177 -332 l22 -91 49 72
c99 146 265 284 414 344 32 13 94 33 139 45 l80 22 64 -30 c34 -16 104 -64
153 -106 118 -100 173 -130 239 -130 98 0 177 55 205 143 6 19 17 85 25 145
23 173 35 198 140 277 157 118 336 196 473 205 98 7 147 -4 265 -58 87 -40
148 -62 148 -53 0 2 -20 40 -45 83 -26 43 -58 111 -73 152 -23 65 -26 89 -26
204 -1 116 2 138 26 203 36 100 81 171 161 258 165 177 399 306 667 365 87 20
134 24 270 24 175 0 227 -9 351 -59 33 -13 59 -22 59 -20 0 1 -15 34 -34 71
-85 170 -119 347 -98 524 45 378 336 751 747 954 386 191 748 225 1091 101 39
-14 74 -26 78 -26 3 0 -10 31 -29 70 -149 295 -195 615 -130 895 75 324 319
623 642 786 114 57 273 111 399 135 49 9 92 20 96 23 4 3 -73 39 -170 80 -717
301 -1017 402 -1387 467 -126 22 -186 27 -380 30 -126 1 -261 -2 -299 -7z"/>
</g>
</svg>
