<?xml version="1.0" standalone="no"?>
<!DOCTYPE svg PUBLIC "-//W3C//DTD SVG 20010904//EN"
 "http://www.w3.org/TR/2001/REC-SVG-20010904/DTD/svg10.dtd">
<svg version="1.0" xmlns="http://www.w3.org/2000/svg"
 width="1280.000000pt" height="1280.000000pt" viewBox="0 0 1280.000000 1280.000000"
 preserveAspectRatio="xMidYMid meet">
<metadata>
Created by potrace 1.15, written by Peter Selinger 2001-2017
</metadata>
<g transform="translate(0.000000,1280.000000) scale(0.100000,-0.100000)"
fill="#f44336" stroke="none">
<path d="M5730 12280 c-272 -45 -485 -128 -619 -240 -126 -106 -236 -276 -277
-430 -27 -101 -23 -245 10 -345 70 -211 232 -386 458 -493 140 -67 274 -102
388 -102 l60 0 0 -87 0 -88 -38 40 c-81 88 -259 159 -448 178 -126 12 -199 0
-309 -52 -163 -77 -309 -304 -292 -451 12 -99 84 -195 192 -255 137 -76 263
-87 455 -39 20 5 22 4 10 -6 -13 -10 -13 -11 0 -7 8 2 15 9 15 15 0 15 71 63
80 54 3 -4 5 0 3 8 -2 8 2 14 9 15 6 0 15 4 20 9 5 5 2 6 -6 1 -7 -4 -12 -4
-10 1 2 5 15 31 28 59 18 38 23 65 23 123 0 40 -3 76 -6 79 -2 3 -28 2 -55 -2
-38 -5 -51 -11 -51 -23 0 -29 -58 -119 -92 -146 -110 -83 -236 -86 -360 -7
-62 40 -88 90 -88 174 0 112 69 210 185 262 195 87 408 53 561 -88 140 -129
183 -313 110 -472 -69 -151 -229 -239 -606 -333 -128 -32 -313 -74 -340 -77
-54 -7 -334 -84 -425 -117 -230 -84 -626 -282 -719 -359 -6 -5 -54 -39 -106
-76 -238 -167 -485 -416 -634 -638 -139 -207 -235 -436 -337 -800 l-41 -149
-2 -2436 c0 -1339 0 -2803 2 -3252 l2 -818 3340 0 c3262 0 3340 0 3349 19 7
12 11 1103 11 3272 l1 3254 -26 100 c-61 232 -211 565 -346 767 -160 241 -356
448 -602 637 -67 51 -291 201 -301 201 -3 0 -22 12 -43 26 -57 39 -375 196
-483 239 -172 68 -445 148 -630 184 -58 11 -174 34 -257 50 -169 33 -302 75
-378 117 -68 38 -157 129 -190 194 -36 72 -45 185 -21 261 18 55 71 140 85
136 4 -1 31 19 60 46 29 26 50 47 47 47 -4 0 -29 -21 -56 -46 -28 -26 -50 -43
-50 -37 0 27 116 112 205 150 84 36 126 44 216 44 88 0 163 -22 237 -70 156
-101 192 -268 84 -384 -60 -64 -202 -101 -292 -77 -90 24 -167 102 -185 186
-5 29 -11 33 -52 39 -51 7 -56 3 -73 -55 -41 -146 49 -261 239 -305 120 -28
313 -2 407 56 36 22 48 24 38 7 -5 -7 -3 -8 5 -4 7 5 10 11 7 14 -8 7 34 52
47 52 6 0 0 -12 -14 -27 -15 -18 -11 -16 14 6 37 35 47 48 26 35 -14 -8 -13
-7 26 71 27 53 30 70 30 150 0 78 -4 97 -28 147 -84 170 -288 294 -502 305
-147 8 -273 -27 -421 -115 l-82 -49 -6 45 c-3 25 -6 50 -6 56 0 8 38 17 102
25 56 7 121 19 146 27 24 9 50 13 58 10 7 -3 13 -1 11 5 -1 5 23 20 53 32 30
13 86 42 124 65 76 47 85 50 65 25 -13 -16 -12 -17 3 -4 10 7 16 17 13 21 -7
11 96 100 108 93 6 -3 7 -1 3 5 -3 6 7 26 22 44 78 88 140 214 166 330 10 46
8 190 -4 243 -68 310 -351 589 -689 679 -106 29 -273 40 -361 26z m205 -176
c105 -18 173 -36 254 -69 54 -22 179 -90 191 -104 3 -3 23 -21 45 -40 218
-187 269 -494 118 -714 -123 -182 -278 -275 -568 -344 -101 -24 -326 -23 -420
1 -217 58 -403 192 -503 361 -119 204 -96 448 60 633 25 30 47 44 33 22 -10
-16 1 -11 16 7 10 11 10 14 2 9 -22 -13 -14 4 15 30 75 69 231 152 342 183
143 39 285 48 415 25z m-44 -2346 l50 -58 -137 0 -137 0 55 58 c30 31 61 68
68 81 l13 25 19 -25 c11 -13 42 -50 69 -81z m-159 -1700 c2 -797 2 -1448 0
-1448 -2 0 -22 13 -45 29 -55 37 -129 74 -197 97 -75 26 -277 26 -370 0 -127
-35 -264 -122 -290 -186 -30 -73 -33 -31 -26 358 3 213 9 419 11 457 28 401
31 430 56 610 73 520 213 910 432 1209 71 97 107 137 118 130 4 -2 11 1 15 7
4 8 3 9 -4 5 -7 -4 -12 -3 -12 2 0 17 88 91 142 118 77 39 163 73 165 66 1 -4
3 -658 5 -1454z m276 1430 c200 -83 318 -217 491 -558 124 -244 183 -409 240
-666 49 -221 83 -469 96 -699 3 -60 8 -139 11 -175 9 -107 12 -890 4 -890 -4
0 -11 12 -14 26 -12 48 -114 138 -206 182 -115 54 -174 67 -310 66 -153 -1
-237 -26 -377 -115 l-33 -21 0 1441 c0 1016 3 1441 11 1441 6 0 45 -14 87 -32z
m-694 -43 c-4 -9 -14 -13 -23 -11 -9 3 -23 1 -31 -5 -12 -8 -10 -9 8 -4 29 8
28 0 -7 -44 -114 -145 -261 -407 -334 -598 -205 -534 -287 -1148 -279 -2096 1
-154 -3 -165 -37 -99 -24 46 -59 79 -136 125 -88 53 -194 78 -338 78 -105 0
-130 -3 -220 -31 -56 -18 -124 -47 -152 -66 l-50 -33 -5 67 c-3 37 -5 195 -4
352 0 317 4 351 75 635 72 289 124 438 231 665 76 161 208 367 228 355 4 -3
14 3 21 13 13 15 12 16 -3 3 -34 -26 -18 2 38 68 50 58 89 93 70 62 -14 -23 1
-10 54 46 30 32 43 47 28 34 -16 -14 -28 -20 -28 -14 0 11 94 93 106 93 4 0
-3 -12 -17 -27 l-24 -28 27 24 c15 13 25 27 23 32 -14 22 260 196 480 305 75
37 271 112 297 114 4 0 5 -7 2 -15z m1116 -9 c114 -29 258 -91 380 -162 171
-100 452 -352 599 -539 87 -109 271 -388 271 -410 0 -2 15 -36 34 -77 103
-223 190 -576 211 -858 4 -47 9 -96 11 -110 3 -14 7 -173 11 -354 l6 -329 -59
40 c-32 21 -91 53 -130 71 -125 56 -169 66 -299 67 -112 0 -126 -2 -219 -35
-84 -30 -108 -43 -160 -92 -34 -32 -64 -57 -67 -58 -4 0 -8 109 -8 243 -1 133
-4 280 -6 327 -2 47 -7 146 -10 220 -21 485 -91 931 -193 1230 -112 328 -241
564 -456 839 -9 11 -7 13 9 8 11 -4 45 -13 75 -21z m-1765 -75 c-3 -5 -42 -38
-88 -72 -110 -84 -256 -206 -286 -238 -13 -14 -45 -48 -70 -76 -140 -148 -294
-369 -389 -560 -203 -406 -283 -843 -291 -1590 -1 -104 -3 -190 -4 -192 -2 -1
-43 22 -92 53 -111 67 -163 84 -290 90 -188 10 -369 -41 -457 -130 l-48 -48
-1 88 c-1 49 -3 103 -5 119 -2 17 -4 143 -6 280 -2 318 4 357 107 640 67 186
262 555 285 540 5 -3 12 0 16 6 4 8 3 9 -4 5 -17 -10 -15 6 4 32 8 12 19 20
24 17 4 -3 14 3 21 13 13 15 12 16 -3 3 -64 -50 51 103 177 237 59 62 155 151
213 197 101 81 140 105 111 68 -13 -16 -12 -17 3 -4 10 7 15 17 12 22 -8 13
178 130 343 214 235 120 369 177 628 264 106 35 98 33 90 22z m2520 -56 c215
-73 461 -183 625 -279 121 -70 316 -202 350 -236 3 -3 27 -23 55 -45 235 -189
473 -489 608 -767 102 -211 143 -339 182 -578 11 -71 18 -431 10 -624 l-7
-198 -62 60 c-110 109 -280 171 -435 159 -68 -5 -344 -79 -367 -97 -18 -16
-20 4 -23 315 -4 432 -20 634 -66 815 -19 74 -94 280 -106 295 -5 5 -9 15 -9
21 0 7 -18 51 -40 98 -22 47 -40 89 -40 93 0 14 -152 283 -200 353 -162 241
-242 326 -452 487 -76 57 -159 124 -185 148 l-48 44 65 -18 c36 -10 101 -31
145 -46z m-2765 -368 c0 -2 -12 -14 -26 -28 l-27 -24 18 28 c14 22 35 36 35
24z m223 -4999 c3 -1083 3 -1968 1 -1968 -3 0 -19 7 -36 16 -55 29 -161 54
-223 54 -80 0 -127 -14 -165 -50 -18 -17 -34 -30 -36 -30 -3 0 -37 16 -76 35
-138 67 -227 68 -330 5 -27 -17 -53 -30 -58 -30 -7 0 -10 339 -10 968 0 532
-2 1209 -3 1505 -2 295 -2 537 -1 537 1 0 39 -17 85 -39 119 -55 205 -82 275
-88 145 -13 247 53 275 176 24 108 -65 295 -159 332 -45 18 -127 11 -163 -14
-50 -34 -119 -174 -101 -204 4 -6 32 -14 63 -17 l56 -7 12 45 c18 71 71 88
114 36 35 -41 50 -93 43 -145 -7 -40 -9 -43 -52 -55 -77 -22 -181 -8 -261 34
-81 43 -143 91 -143 112 0 29 33 79 93 141 57 59 102 89 61 41 l-19 -23 22 19
c13 10 20 22 18 27 -7 11 95 81 241 168 123 72 141 80 128 59 -4 -7 -3 -8 5
-4 6 4 9 11 6 16 -3 4 27 29 65 55 39 26 73 52 76 56 3 5 10 9 16 9 6 0 3 -10
-8 -22 l-19 -23 23 19 c12 11 20 22 17 24 -7 7 46 62 59 62 5 0 -3 -13 -19
-30 -16 -16 -27 -30 -24 -30 3 0 27 24 54 52 28 29 38 42 23 29 -16 -14 -28
-20 -28 -14 0 5 9 18 20 28 11 10 32 38 47 61 15 24 28 42 29 41 1 -1 4 -887
7 -1969z m2207 -4 c0 -1087 3 -1980 6 -1985 9 -15 -4 -10 -44 15 -161 102
-332 112 -409 26 -14 -17 -30 -30 -34 -30 -5 0 -23 13 -41 28 -43 36 -77 51
-141 58 -58 7 -166 -16 -229 -47 -21 -11 -40 -19 -43 -19 -3 0 -5 670 -5 1489
l0 1489 58 -30 c146 -77 335 -118 421 -92 21 6 53 21 69 33 36 26 49 27 31 4
-11 -16 -11 -16 1 -5 8 7 15 20 15 30 0 9 5 16 10 15 13 -2 20 51 19 152 0 94
-20 149 -80 215 -63 69 -132 87 -213 54 -63 -25 -121 -115 -121 -188 0 -40 19
-50 81 -44 29 3 35 9 48 43 16 44 24 52 59 61 45 12 101 -73 102 -153 0 -50
-20 -68 -92 -81 -99 -19 -245 25 -332 100 -38 33 -39 35 -27 71 17 50 139 178
225 236 144 97 322 193 250 135 -18 -14 -18 -15 4 -4 12 6 20 15 17 20 -3 5 8
16 24 25 36 18 45 19 35 3 -4 -7 -3 -8 5 -4 6 4 9 11 6 16 -3 5 3 14 14 19 26
14 34 14 25 -1 -4 -8 -3 -10 2 -5 5 5 9 14 9 20 0 5 6 12 14 15 9 3 11 0 6 -8
-5 -9 -4 -11 4 -6 6 4 9 11 6 16 -5 8 97 100 111 100 4 0 -5 -15 -22 -32 l-29
-33 32 29 c18 16 31 32 28 34 -7 8 16 33 25 27 4 -2 16 5 26 18 16 18 16 19 2
8 -26 -20 -22 -9 17 51 19 29 38 61 41 70 3 10 7 18 10 18 2 0 4 -889 4 -1976z
m2159 -4 l3 -1950 -39 17 c-66 28 -136 43 -199 43 -88 0 -118 -8 -161 -45 -43
-36 -48 -36 -121 13 -72 47 -148 54 -258 22 -43 -13 -84 -27 -90 -32 -7 -5
-13 -2 -16 9 -6 27 -10 2953 -4 2953 3 0 31 -13 63 -29 147 -75 321 -92 437
-45 15 6 17 4 11 -7 -5 -8 -5 -11 1 -6 5 5 9 12 9 15 0 4 12 23 26 42 65 87
73 182 25 286 -48 103 -115 154 -203 154 -61 0 -110 -25 -147 -77 -28 -41 -61
-149 -46 -158 4 -2 32 -7 62 -11 l55 -6 6 31 c8 37 48 81 75 81 36 0 71 -39
88 -97 15 -52 15 -59 0 -90 -19 -40 -66 -63 -126 -63 -81 0 -259 77 -305 132
-23 27 -24 32 -12 61 8 18 18 32 24 32 6 0 15 4 20 9 5 5 3 6 -4 2 -32 -18 -8
23 41 70 81 78 175 143 150 102 -4 -7 -3 -8 5 -4 6 4 9 11 6 16 -6 10 23 30
172 116 139 80 240 148 315 213 l63 55 -60 -62 c-33 -34 -57 -62 -54 -62 2 0
36 32 74 72 39 39 62 66 53 59 -10 -8 -18 -9 -18 -4 0 13 35 44 42 37 3 -3 9
0 14 7 4 8 3 10 -4 5 -17 -11 -14 5 5 26 9 10 17 18 18 18 1 0 3 -877 4 -1950z
m-4174 1922 c11 -9 48 -52 83 -94 86 -106 120 -130 330 -241 341 -179 462
-283 486 -417 6 -33 3 -37 -42 -67 -72 -49 -139 -75 -209 -81 -72 -5 -150 13
-157 37 -32 107 -5 176 74 194 22 5 30 -1 60 -48 38 -59 46 -63 90 -40 55 28
52 98 -7 159 -88 91 -187 100 -269 24 -88 -81 -114 -234 -58 -344 77 -152 270
-176 471 -59 23 14 44 25 47 25 3 0 5 -664 5 -1476 0 -811 -3 -1474 -7 -1472
-195 101 -302 119 -401 68 -22 -11 -46 -31 -53 -44 l-13 -25 -90 47 c-83 43
-96 46 -165 46 -74 1 -90 -4 -202 -62 -5 -2 -8 872 -8 1942 0 1070 3 1946 8
1946 4 -1 16 -8 27 -18z m2258 -76 c109 -121 200 -182 547 -368 91 -49 194
-113 225 -140 31 -26 85 -115 85 -140 0 -35 -225 -157 -305 -165 -129 -13
-193 92 -125 205 36 59 108 51 132 -15 14 -39 29 -45 88 -35 45 8 45 8 42 47
-6 69 -49 133 -112 165 -117 59 -211 14 -282 -135 -69 -147 -4 -316 138 -355
81 -23 222 4 347 66 38 19 71 34 73 34 2 0 4 -670 4 -1490 0 -820 -3 -1490 -6
-1490 -3 0 -24 11 -47 24 -132 77 -255 77 -381 -2 -25 -16 -44 -21 -51 -16
-77 57 -120 73 -201 74 -79 0 -159 -15 -206 -40 l-38 -20 0 1303 c0 716 -1
1587 -2 1935 -2 347 -1 632 2 632 3 0 36 -33 73 -74z m-4169 -175 c41 -27 145
-84 231 -126 86 -41 182 -93 214 -114 102 -70 170 -165 171 -238 0 -27 -7 -37
-42 -61 -60 -41 -152 -82 -214 -94 -107 -21 -174 16 -174 96 0 55 25 123 51
136 44 24 102 -7 112 -60 6 -25 11 -30 35 -30 46 0 92 20 92 39 0 58 -55 147
-109 178 -107 61 -210 23 -271 -101 -56 -113 -51 -233 12 -310 50 -61 78 -71
203 -70 111 1 136 7 288 69 16 7 17 -66 17 -1455 l0 -1462 -22 5 c-13 2 -52
12 -88 22 -96 26 -172 17 -256 -30 l-67 -36 -26 20 c-63 51 -82 56 -191 56
-97 0 -110 -2 -172 -32 l-68 -32 0 1936 0 1935 100 -95 c55 -53 134 -118 174
-146z m3926 -4151 l0 -100 -26 17 c-19 12 -52 18 -114 20 -77 2 -93 0 -136
-22 -57 -29 -60 -30 -45 -12 6 8 8 17 5 20 -4 3 59 38 138 76 79 38 150 77
157 85 8 9 15 16 17 16 2 0 4 -45 4 -100z m-2968 0 c173 -83 245 -163 218
-244 -17 -52 -69 -86 -153 -100 -84 -15 -142 -6 -173 27 -37 38 -38 62 -6 98
26 29 36 33 72 32 48 -2 80 -25 80 -59 0 -29 9 -34 74 -41 l53 -5 5 39 c8 60
-1 89 -41 132 -62 66 -167 89 -260 56 l-41 -14 -1 47 c0 26 -2 64 -4 84 l-3
37 37 -19 c20 -10 84 -41 143 -70z m1851 -11 l5 -85 -42 20 c-30 15 -60 21
-113 21 -63 0 -76 -3 -114 -30 -53 -37 -89 -103 -89 -162 l0 -43 49 0 c53 0
81 17 81 50 0 49 104 68 147 28 15 -14 23 -33 23 -54 0 -68 -104 -109 -212
-84 -140 33 -180 148 -85 244 33 33 68 52 163 89 81 32 130 57 150 78 16 16
30 26 31 22 1 -4 3 -47 6 -94z m2216 -16 l2 -62 -42 14 c-64 23 -166 19 -219
-7 -24 -13 -52 -35 -63 -49 -23 -32 -39 -102 -31 -134 5 -21 12 -25 44 -25 63
0 90 15 90 49 0 35 22 51 70 51 53 0 86 -24 93 -66 4 -21 2 -43 -3 -49 -21
-25 -127 -48 -191 -41 -114 11 -171 73 -148 159 17 66 77 116 200 167 57 24
122 56 144 70 39 26 40 26 46 6 3 -12 6 -49 8 -83z m-5068 -8 c28 -15 74 -49
100 -75 46 -46 49 -53 49 -99 0 -62 -24 -92 -98 -121 -89 -34 -214 -22 -244
24 -13 19 -9 70 7 93 17 24 66 34 112 21 28 -8 33 -14 33 -39 0 -32 14 -41 86
-53 37 -7 41 -5 52 19 36 79 -24 170 -135 205 -41 13 -141 10 -175 -5 -16 -6
-18 0 -18 63 l0 71 89 -39 c49 -22 113 -51 142 -65z m1762 28 c3 -40 2 -73 -3
-73 -4 0 -24 7 -43 15 -42 17 -107 19 -156 5 -41 -12 -86 -52 -111 -100 -19
-38 -35 -114 -26 -128 3 -6 29 -5 61 2 50 10 58 15 78 51 20 36 27 40 65 43
36 3 47 -1 73 -27 46 -46 38 -79 -26 -111 -125 -62 -295 2 -295 111 0 95 41
135 205 204 116 48 130 52 119 34 -5 -8 -1 -8 14 0 12 6 24 17 28 24 5 9 4 9
-7 0 -7 -7 -18 -13 -23 -13 -6 1 0 10 13 21 13 11 25 18 26 17 2 -2 5 -36 8
-75z m2390 59 c-2 -6 4 -9 12 -6 17 7 183 -71 259 -121 93 -62 119 -131 74
-203 -29 -47 -86 -72 -168 -72 -76 0 -140 25 -165 64 -16 24 -16 28 -1 51 27
41 70 58 116 45 34 -9 41 -16 50 -50 6 -22 12 -40 13 -40 112 -13 106 -14 117
15 25 65 -7 141 -78 182 -49 29 -146 41 -204 25 l-36 -10 -4 69 c-2 43 1 68 7
65 6 -2 9 -8 8 -14z m-2107 -39 c102 -43 202 -108 231 -152 52 -77 7 -174 -90
-198 -97 -23 -184 -11 -230 31 -52 48 -3 116 83 116 52 0 64 -9 75 -57 5 -25
12 -33 28 -33 12 0 39 -3 59 -6 35 -6 37 -5 46 27 20 79 -43 174 -135 200 -55
15 -132 16 -161 0 -18 -9 -20 -6 -26 36 -3 25 -6 54 -6 65 0 23 6 21 126 -29z
m1050 21 c33 -14 82 -35 109 -47 122 -52 185 -123 187 -210 0 -25 -2 -50 -6
-55 -3 -6 -32 -23 -64 -38 -76 -37 -195 -41 -239 -8 -50 37 -40 104 20 129 33
14 82 10 105 -8 6 -5 12 -21 12 -36 0 -21 7 -29 33 -39 18 -7 48 -12 65 -12
28 0 32 4 38 36 15 78 -44 168 -125 193 -47 14 -141 14 -175 1 l-26 -10 0 65
c0 36 2 65 4 65 2 0 30 -12 62 -26z m3037 -43 c0 -28 -2 -53 -5 -56 -3 -3 -17
-1 -32 5 -46 17 -137 12 -179 -10 -42 -23 -51 -25 -41 -9 9 16 -54 -22 -69
-41 -7 -8 3 -4 21 9 36 25 55 22 28 -4 -40 -40 -66 -128 -47 -163 9 -17 16
-18 61 -11 60 9 70 15 70 37 0 10 7 28 16 40 32 45 144 15 158 -43 15 -58 -70
-100 -186 -93 -155 10 -210 87 -147 209 23 47 59 69 184 113 56 20 110 47 124
61 32 32 43 21 44 -44z m-5473 3 l0 -56 -36 5 c-19 3 -64 1 -100 -3 -115 -14
-174 -75 -174 -179 l0 -51 38 1 c64 2 85 12 94 47 11 40 40 56 91 49 47 -6 74
-30 83 -74 5 -26 2 -33 -17 -44 -130 -73 -315 -37 -335 66 -16 87 46 167 157
204 35 12 93 36 129 55 36 19 66 34 68 35 1 1 2 -24 2 -55z m4696 21 c173 -65
244 -132 244 -234 0 -77 -85 -131 -205 -131 -88 0 -155 50 -141 105 9 34 70
63 116 56 34 -6 40 -14 55 -77 5 -17 117 -28 127 -12 11 18 10 72 -3 105 -14
39 -67 92 -109 109 -35 15 -134 20 -169 9 -14 -4 -20 1 -25 26 -3 17 -6 42 -6
55 0 28 13 27 116 -11z m-1716 -110 c-7 -8 -9 -15 -6 -15 4 0 -3 -14 -15 -31
-25 -36 -30 -95 -10 -133 13 -23 19 -26 50 -20 63 10 71 15 77 42 11 44 33 62
76 62 50 0 74 -13 93 -50 21 -41 6 -66 -52 -92 -55 -24 -153 -27 -204 -5 -45
18 -88 73 -96 120 -4 27 0 45 17 71 12 20 26 36 32 36 6 0 5 -7 -3 -17 -13
-16 -12 -17 4 -4 9 8 15 16 12 19 -7 7 15 32 27 32 6 0 5 -7 -2 -15z"/>
</g>
</svg>
