<?xml version="1.0" ?><svg id="Layer_1" style="enable-background:new 0 0 128 128;" version="1.1" viewBox="0 0 128 128" xml:space="preserve" xmlns="http://www.w3.org/2000/svg" xmlns:xlink="http://www.w3.org/1999/xlink"><style type="text/css">
	.st0{fill:#191919;}
	.st1{fill:#5F5F5F;}
	.st2{fill:#D7E7F1;}
	.st3{fill:#DB2626;}
	.st4{fill:#FFFFFF;}
	.st5{fill:#BF1313;}
	.st6{fill:#330C03;}
	.st7{fill:#C64309;}
	.st8{fill:#912200;}
	.st9{fill:#1D1D26;}
	.st10{fill:#FD01FD;}
	.st11{fill:#9900CC;}
	.st12{fill:#9494F5;}
	.st13{fill:#E25F3B;}
	.st14{fill:#CC4627;}
	.st15{fill:#69D240;}
	.st16{fill:#565656;}
	.st17{fill:#F2D313;}
	.st18{fill:#D7E6F0;}
	.st19{fill:#666666;}
	.st20{fill:#7B7B7B;}
	.st21{fill:#262C3A;}
	.st22{fill:#A46637;}
	.st23{fill:#7F340A;}
	.st24{fill:#62C60A;}
	.st25{fill:#54A307;}
	.st26{fill:#E01931;}
</style><g><g><g><path class="st0" d="M67.7,39.8c-0.2,0-0.4-0.1-0.5-0.3c-0.1-0.3,0-0.5,0.3-0.6l5.8-2.2l2.7-7c0.1-0.3,0.4-0.4,0.6-0.3     c0.3,0.1,0.4,0.4,0.3,0.6l-2.7,7.2c-0.1,0.1-0.2,0.2-0.3,0.3l-6,2.2C67.8,39.8,67.7,39.8,67.7,39.8z"/></g><g><path class="st0" d="M60.1,39.8c-0.1,0-0.1,0-0.2,0l-6-2.2c-0.1,0-0.2-0.2-0.3-0.3l-2.7-7.2c-0.1-0.3,0-0.5,0.3-0.6     c0.3-0.1,0.5,0,0.6,0.3l2.7,7l5.8,2.2c0.3,0.1,0.4,0.4,0.3,0.6C60.5,39.7,60.3,39.8,60.1,39.8z"/></g></g><g><g><path class="st0" d="M69.4,70.4c0,0-0.1,0-0.1,0c-0.3-0.1-0.4-0.3-0.4-0.6l1.9-8.6l-4-3c-0.2-0.2-0.3-0.5-0.1-0.7     c0.2-0.2,0.5-0.3,0.7-0.1l4.2,3.2c0.2,0.1,0.2,0.3,0.2,0.5l-2,9C69.8,70.3,69.6,70.4,69.4,70.4z"/></g><g><path class="st0" d="M58.4,70.4c-0.2,0-0.4-0.2-0.5-0.4l-2-9c0-0.2,0-0.4,0.2-0.5l4.2-3.2c0.2-0.2,0.5-0.1,0.7,0.1     c0.2,0.2,0.1,0.5-0.1,0.7l-4,3l1.9,8.6c0.1,0.3-0.1,0.5-0.4,0.6C58.5,70.4,58.5,70.4,58.4,70.4z"/></g></g></g><path class="st18" d="M68.6,43.4c10.4-2.6,36.5-8,50.2-0.5c16.6,9-23.4,16.7-50,7.1"/><path class="st18" d="M68.6,47.8c0,0,37.5,5.7,47.7,23.9c10.2,18.2-38.7,2.2-47.6-19.7L68.6,47.8z"/><path class="st18" d="M59,43.4c-10.4-2.6-36.5-8-50.2-0.5c-16.6,9,23.4,16.7,50,7.1"/><path class="st18" d="M59,47.8c0,0-37.5,5.7-47.7,23.9C1.1,89.9,50,73.9,58.9,52L59,47.8z"/><path class="st24" d="M63.9,100.1c-0.6,0-1-0.4-1-1c0,0-0.6-8.5-0.7-11.3C62.1,81.1,62.9,61,62.9,61c0-0.6,0.4-1,1-1  c0.6,0,1,0.4,1,1c0,0,0.8,20.1,0.7,26.8c0,2.8-0.7,11.3-0.7,11.3C64.9,99.6,64.5,100.1,63.9,100.1z"/><ellipse class="st25" cx="63.9" cy="47.8" rx="4.7" ry="13.2"/><g><path class="st26" d="M61.9,31.2c-1.1,0-1.9,0.9-1.9,1.9c0,1.1,0.9,1.9,1.9,1.9c1.1,0,1.9-0.9,1.9-1.9C63.9,32.1,63,31.2,61.9,31.2   z"/><path class="st26" d="M65.9,31.2c-1.1,0-1.9,0.9-1.9,1.9c0,1.1,0.9,1.9,1.9,1.9c1.1,0,1.9-0.9,1.9-1.9C67.8,32.1,67,31.2,65.9,31.2   z"/></g></svg>