<svg height="512" viewBox="0 0 58 58" width="512" xmlns="http://www.w3.org/2000/svg">
    <g id="Page-1" fill="none" fill-rule="evenodd">
        <g id="031---No-Virus" fill-rule="nonzero">
            <g fill="#338f7c">
                <path id="Rectangle-path" d="m28 11h2v6h-2z"/>
                <path id="Rectangle-path" d="m20.5 13.171h2v5.679h-2z"
                      transform="matrix(.866 -.5 .5 .866 -5.125 12.896)"/>
                <path id="Rectangle-path" d="m15.009 18.527h2v5.948h-2z"
                      transform="matrix(.5 -.866 .866 .5 -10.616 24.615)"/>
                <path id="Rectangle-path" d="m11 28h6v2h-6z"/>
                <path id="Rectangle-path" d="m28 41h2v6h-2z"/>
                <path id="Rectangle-path" d="m35.5 39.151h2v5.679h-2z"
                      transform="matrix(.866 -.5 .5 .866 -16.106 23.876)"/>
                <path id="Rectangle-path" d="m40.99 33.527h2v5.948h-2z"
                      transform="matrix(.5 -.866 .866 .5 -10.615 54.617)"/>
                <path id="Rectangle-path" d="m41 28h6v2h-6z"/>
            </g>
            <circle id="Oval" cx="29" cy="10" fill="#f2d45b" r="2"/>
            <circle id="Oval" cx="19.5" cy="12.546" fill="#f2d45b" r="2"/>
            <circle id="Oval" cx="12.546" cy="19.5" fill="#f2d45b" r="2"/>
            <circle id="Oval" cx="10" cy="29" fill="#f2d45b" r="2"/>
            <circle id="Oval" cx="29" cy="48" fill="#f2d45b" r="2"/>
            <circle id="Oval" cx="38.5" cy="45.454" fill="#f2d45b" r="2"/>
            <circle id="Oval" cx="45.454" cy="38.5" fill="#f2d45b" r="2"/>
            <circle id="Oval" cx="48" cy="29" fill="#f2d45b" r="2"/>
            <path id="Shape"
                  d="m18.51 36.67c-3.785174-5.1716777-3.234344-12.3308135 1.2974213-16.8625787 4.5317652-4.5317653 11.690901-5.0825953 16.8625787-1.2974213z"
                  fill="#f2d45b"/>
            <path id="Shape"
                  d="m39.49 21.33c3.785174 5.1716777 3.234344 12.3308135-1.2974213 16.8625787-4.5317652 4.5317653-11.690901 5.0825953-16.8625787 1.2974213z"
                  fill="#f2d45b"/>
            <path id="Shape"
                  d="m30.45 24.73c.898628-1.2725045.6737598-3.0210877-.5175927-4.0248203s-2.9527335-.9285946-4.0542778.1729498c-1.1015444 1.1015443-1.1766824 2.8629253-.1729498 4.0542778s2.7523158 1.4162207 4.0248203.5175927"
                  fill="#f4eec9"/>
            <path id="Shape"
                  d="m29.73 31.09c.2522537-.0600665.5106935-.0902738.77-.09 1.9329966 0 3.5 1.5670034 3.5 3.5s-1.5670034 3.5-3.5 3.5-3.5-1.5670034-3.5-3.5c-.0002738-.2593065.0299335-.5177463.09-.77"
                  fill="#f4eec9"/>
            <circle id="Oval" cx="37" cy="30" fill="#f8e9af" r="1"/>
            <circle id="Oval" cx="21" cy="27" fill="#f8e9af" r="1"/>
        </g>
    </g>
</svg>
