<svg id="Capa_1" enable-background="new 0 0 511.219 511.219" height="512" viewBox="0 0 511.219 511.219" width="512" xmlns="http://www.w3.org/2000/svg"><g><g id="Filled_5_"><path d="m207.61 503.476c117.706-30.234 200-136.336 200-257.863v-131.851l-200-105.286-200 105.286v131.851c0 121.527 82.293 227.629 200 257.863z" fill="#e4e8ed"/><path d="m207.61 473.476c-117.707-30.234-200-136.336-200-257.863v30c0 121.527 82.294 227.63 200 257.863 117.706-30.234 200-136.336 200-257.863v-30c0 121.527-82.294 227.629-200 257.863z" fill="#cad8eb"/><path d="m207.61 461.936c-94.714-28.956-160-116.472-160-216.323v-107.704l160-84.229 160 84.229v107.704c0 99.851-65.287 187.367-160 216.323z" fill="#f8e868"/><path d="m207.61 431.936c-94.714-28.956-160-116.472-160-216.323v30c0 99.852 65.286 187.367 160 216.323 94.714-28.956 160-116.472 160-216.323v-30c0 99.851-65.287 187.367-160 216.323z" fill="#efc17a"/><circle cx="373.61" cy="373.476" fill="#9ce3bf" r="70"/><g fill="#87bcc4"><path d="m373.61 413.476c-33.509 0-61.503-23.551-68.372-55-1.056 4.834-1.628 9.849-1.628 15 0 38.66 31.34 70 70 70s70-31.34 70-70c0-5.151-.572-10.166-1.628-15-6.869 31.449-34.863 55-68.372 55z"/><circle cx="258.61" cy="373.476" r="15"/><circle cx="292.292" cy="454.793" r="15"/><circle cx="373.61" cy="488.476" r="15"/><circle cx="454.927" cy="454.793" r="15"/><circle cx="488.61" cy="373.476" r="15"/><circle cx="454.927" cy="292.159" r="15"/><circle cx="373.61" cy="258.476" r="15"/><circle cx="292.292" cy="292.159" r="15"/><circle cx="360.61" cy="357.476" r="15"/></g></g><g fill="#fff"><path d="m146.11 177.476h15v15h-15z"/><path d="m186.11 127.476h15v15h-15z"/><path d="m376.11 403.476h15v15h-15z"/><path d="m395.11 338.476h15v15h-15z"/><path d="m186.11 227.476h15v15h-15z"/><path d="m142.61 365.976h15v15h-15z"/></g><g id="Outline_5_"><path d="m488.61 350.976c-9.778 0-18.114 6.271-21.21 15h-16.66c-1.52-15.749-7.765-30.137-17.308-41.716l11.816-11.816c3.054 1.453 6.362 2.204 9.678 2.204 5.762 0 11.523-2.193 15.91-6.579 8.773-8.773 8.773-23.047 0-31.82-8.773-8.774-23.047-8.772-31.82 0-6.911 6.911-8.352 17.228-4.375 25.588l-11.816 11.816c-11.579-9.543-25.967-15.788-41.716-17.308v-16.659c8.729-3.096 15-11.432 15-21.21 0-12.407-10.093-22.5-22.5-22.5s-22.5 10.093-22.5 22.5c0 9.778 6.271 18.114 15 21.21v16.659c-15.749 1.52-30.137 7.765-41.716 17.308l-11.816-11.816c3.978-8.36 2.536-18.677-4.375-25.589-8.772-8.773-23.047-8.773-31.82 0s-8.773 23.047 0 31.82c4.387 4.386 10.148 6.579 15.91 6.579 3.316 0 6.624-.751 9.679-2.204l11.816 11.816c-9.543 11.579-15.788 25.967-17.308 41.716h-16.659c-3.096-8.729-11.432-15-21.21-15-12.407 0-22.5 10.093-22.5 22.5s10.093 22.5 22.5 22.5c9.778 0 18.114-6.271 21.21-15h16.659c1.52 15.749 7.765 30.137 17.308 41.716l-11.816 11.816c-8.36-3.977-18.677-2.536-25.588 4.375-8.773 8.773-8.773 23.047 0 31.82 4.386 4.387 10.148 6.58 15.91 6.58s11.524-2.193 15.911-6.58c6.911-6.911 8.352-17.228 4.375-25.588l11.816-11.816c11.579 9.543 25.967 15.788 41.716 17.308v16.659c-8.729 3.096-15 11.432-15 21.21 0 12.407 10.093 22.5 22.5 22.5s22.5-10.093 22.5-22.5c0-9.778-6.271-18.114-15-21.21v-16.659c15.749-1.52 30.137-7.765 41.716-17.308l11.816 11.816c-3.978 8.36-2.536 18.677 4.375 25.588 4.386 4.387 10.148 6.58 15.91 6.58s11.523-2.193 15.91-6.58c8.773-8.773 8.773-23.047 0-31.82-6.912-6.91-17.228-8.352-25.588-4.375l-11.816-11.816c9.543-11.579 15.788-25.967 17.308-41.716h16.658c3.096 8.729 11.432 15 21.21 15 12.407 0 22.5-10.093 22.5-22.5s-10.094-22.499-22.5-22.499zm-38.987-64.121c1.462-1.462 3.383-2.193 5.303-2.193 1.921 0 3.841.731 5.304 2.193 2.924 2.924 2.924 7.683 0 10.606-2.924 2.925-7.683 2.925-10.606 0-2.925-2.923-2.925-7.681-.001-10.606zm-152.027 10.607c-2.924 2.925-7.682 2.925-10.607 0-2.924-2.924-2.924-7.683 0-10.607 1.462-1.462 3.383-2.193 5.304-2.193 1.92 0 3.841.731 5.303 2.193 2.924 2.925 2.924 7.683 0 10.607zm-38.986 83.514c-4.136 0-7.5-3.364-7.5-7.5s3.364-7.5 7.5-7.5 7.5 3.364 7.5 7.5-3.365 7.5-7.5 7.5zm38.986 79.121c-2.925 2.925-7.682 2.924-10.607 0-2.924-2.924-2.924-7.683 0-10.607 2.925-2.924 7.684-2.924 10.606 0 2.925 2.924 2.925 7.682.001 10.607zm152.027-10.607c2.925-2.924 7.683-2.924 10.607 0s2.924 7.683 0 10.607-7.681 2.925-10.607 0c-2.924-2.925-2.924-7.683 0-10.607zm-76.013-198.514c4.136 0 7.5 3.364 7.5 7.5s-3.364 7.5-7.5 7.5-7.5-3.364-7.5-7.5 3.364-7.5 7.5-7.5zm0 245c-4.136 0-7.5-3.364-7.5-7.5s3.364-7.5 7.5-7.5 7.5 3.364 7.5 7.5-3.365 7.5-7.5 7.5zm0-60c-34.462 0-62.5-28.038-62.5-62.5s28.038-62.5 62.5-62.5 62.5 28.038 62.5 62.5-28.038 62.5-62.5 62.5zm115-55c-4.136 0-7.5-3.364-7.5-7.5s3.364-7.5 7.5-7.5 7.5 3.364 7.5 7.5-3.365 7.5-7.5 7.5z"/><path d="m344.7 341.566c-8.773 8.772-8.773 23.047 0 31.819 4.386 4.386 10.148 6.58 15.91 6.58s11.523-2.193 15.91-6.58c8.773-8.772 8.773-23.047 0-31.819s-23.048-8.772-31.82 0zm21.213 21.213c-1.417 1.417-3.3 2.197-5.303 2.197s-3.887-.78-5.303-2.197-2.197-3.3-2.197-5.303.78-3.887 2.197-5.303 3.3-2.197 5.303-2.197 3.887.78 5.303 2.197 2.197 3.3 2.197 5.303-.781 3.887-2.197 5.303z"/><path d="m240.4 250.976h-33.79v15h57.5v-57.5h-15v29.584l-44.425-52.307 120.074-126.584-10.883-10.323-129.342 136.353z"/><path d="m327.302 30.183h15v15h-15z" transform="matrix(.688 -.726 .726 .688 77.049 254.652)"/><path d="m347.948 8.417h15v15h-15z" transform="matrix(.688 -.726 .726 .688 99.277 262.845)"/><path d="m156.11 147.476h15v15h-15z"/><path d="m156.11 207.476h15v15h-15z"/><path d="m340.11 392.476h15v15h-15z"/><path d="m402.11 372.476h15v15h-15z"/><path d="m253.096 86.093 6.987-13.274-52.474-27.618-167.499 88.178v62.421h15v-53.366l152.5-80.282z"/><path d="m40.11 245.616c0 50.524 15.893 98.662 45.959 139.211 29.979 40.43 71.248 69.574 119.348 84.281l2.193.67 2.193-.671c15.466-4.731 30.472-11.085 44.601-18.886l-7.25-13.132c-12.552 6.93-25.846 12.641-39.546 16.99-43.133-13.672-79.539-39.518-105.954-73.104h25.955v-15h-36.746c-3.2-4.872-6.206-9.875-9.008-15h27.754v-15h-35.216c-12.466-27.685-19.283-58.322-19.283-90.36v-34.815h-15z"/><path d="m375.11 215.906v-82.527l-63.557-33.46-6.987 13.274 55.544 29.241v73.472z"/><path d="m207.61 16.952 74.075 39 6.989-13.272-81.064-42.68-150.186 79.065 6.987 13.274z"/><path d="m232.152 487.912c-8.014 2.998-16.26 5.624-24.541 7.814-73.786-19.53-134.792-70.198-167.57-139.265l-13.551 6.432c34.969 73.684 100.305 127.572 179.255 147.848l1.864.479 1.865-.478c9.422-2.417 18.821-5.371 27.935-8.781 9.011-3.371 17.906-7.246 26.439-11.518l-6.715-13.413c-8.061 4.034-16.466 7.696-24.981 10.882z"/><path d="m15.11 245.616v-127.323l36.028-18.967-6.987-13.273-44.041 23.186v136.377c0 35.604 6.786 70.317 20.168 103.176l13.892-5.658c-12.648-31.053-19.06-63.863-19.06-97.518z"/><path d="m415.11 109.238-74.967-39.459-6.987 13.274 66.954 35.241v35.283h15z"/><path d="m400.11 168.577h15v63.62h-15z"/></g></g></svg>